<?xml version="1.0" encoding="UTF-8"?>
<svg id="Layer_1" xmlns="http://www.w3.org/2000/svg" version="1.1" viewBox="0 0 340 430">
  <!-- Generator: Adobe Illustrator 29.0.1, SVG Export Plug-In . SVG Version: 2.1.0 Build 192)  -->
  <defs>
    <style>
      .st0 {
        fill: none;
      }

      .st1 {
        fill: #fff;
      }

      .st2 {
        fill: #f37c31;
      }
    </style>
  </defs>
  <polygon class="st0" points="91 351.7 180.9 351.7 190.1 316.3 100.9 313.7 91 351.7"/>
  <polygon class="st0" points="128.2 209.4 218 209.4 227.4 173.8 138.3 171.1 128.2 209.4"/>
  <polygon class="st0" points="109.6 280.6 199.5 280.6 208.7 245 119.6 242.4 109.6 280.6"/>
  <polygon class="st0" points="146.8 138.3 236.6 138.3 246 102.5 156.9 99.8 146.8 138.3"/>
  <polygon class="st2" points="61 312.5 69.4 280.6 104.4 280.6 114.5 242.2 83.9 241.3 92.3 209.4 123 209.4 133.1 171 106.8 170.2 115.2 138.3 141.7 138.3 151.8 99.7 129.7 99 138.1 67.1 160.3 67.1 166.6 43 113.8 48.3 21.7 400.9 72.9 400.9 77.1 384.8 38.1 383.6 46.5 351.7 85.8 351.7 95.8 313.5 61 312.5"/>
  <polygon points="253.9 72.1 164.2 72.1 141.9 72.1 136.2 94.2 158.2 94.9 158.2 94.9 247.3 97.5 253.9 72.1"/>
  <polygon points="136.2 94.2 158.2 94.9 158.2 94.9 136.2 94.2"/>
  <polygon points="113.3 165.4 139.6 166.1 139.6 166.1 228.7 168.8 229 167.6 235.3 143.3 145.5 143.3 119 143.3 113.3 165.4"/>
  <polygon points="113.3 165.4 139.6 166.1 139.6 166.1 113.3 165.4"/>
  <polygon points="126.9 214.4 96.1 214.4 90.4 236.5 210 240.1 215.3 219.9 216.7 214.4 126.9 214.4"/>
  <polygon points="67.5 307.7 102.2 308.7 102.2 308.7 191.4 311.3 198.2 285.6 108.3 285.6 73.2 285.6 67.5 307.7"/>
  <polygon points="67.5 307.7 102.2 308.7 102.2 308.7 67.5 307.7"/>
  <polygon points="50.3 356.7 44.6 378.8 83.6 380 83.6 380 172.8 382.6 179.6 356.7 89.6 356.7 50.3 356.7"/>
  <polygon points="44.6 378.8 83.6 380 83.6 380 44.6 378.8"/>
  <polygon class="st2" points="232.5 173.9 220.4 220.1 213.9 245.2 213.9 245.2 183.8 360.2 176.6 387.7 176.6 387.7 173.2 400.9 224.4 400.9 318.1 43 265.3 48.3 234.4 166.7 232.5 173.9 232.5 173.9"/>
  <polygon class="st2" points="232.5 173.9 234.4 166.7 232.5 173.9 232.5 173.9"/>
  <polygon class="st2" points="213.9 245.2 220.4 220.1 213.9 245.2 213.9 245.2"/>
  <polygon class="st2" points="183.8 360.2 176.6 387.7 176.6 387.7 183.8 360.2"/>
  <path class="st1" d="M261.3,43.6l-6.1,23.5h-89.7l7.8-29.8-63.4,6.3L15.2,405.9h61.5l5.5-21,89.2,2.7-4.8,18.3h61.5L324.8,37.3l-63.4,6.3ZM173.2,400.9l3.4-13.2,7.2-27.6,30-115,6.6-25.1,12-46.1,1.9-7.2,30.9-118.5,52.8-5.2-93.7,357.9h-51.2ZM21.7,400.9L113.8,48.3l52.8-5.2-6.3,24.1h-22.2l-8.3,31.9,22,.7-10.1,38.6h-26.5l-8.3,31.9,26.3.8-10.1,38.5h-30.8l-8.3,31.9,30.5.9-10,38.3h-35l-8.3,31.9,34.7,1-10,38.2h-39.3l-8.3,31.9,39,1.2-4.2,16.2H21.7ZM198.2,285.6l-6.7,25.8-89.2-2.6-34.8-1,5.8-22.1h124.9ZM190.1,316.3l-9.3,35.4h-89.9l10-38.1,89.2,2.6ZM109.6,280.6l10-38.2,89.2,2.7-9.3,35.5h-89.9ZM210,240.1l-119.7-3.6,5.8-22.1h120.6l-1.4,5.4-5.3,20.2ZM128.2,209.4l10-38.3,89.1,2.6-9.3,35.7h-89.8ZM228.7,168.8l-89.1-2.6-26.3-.8,5.8-22.1h116.3l-6.4,24.3-.3,1.2ZM146.8,138.3l10.1-38.4,89,2.6-9.4,35.8h-89.8ZM247.3,97.5l-89-2.6-22.1-.7,5.8-22.1h112l-6.6,25.4ZM44.6,378.8l5.8-22.1h129.2l-6.8,25.9-89.2-2.7-39-1.2Z"/>
</svg>